<svg xmlns="http://www.w3.org/2000/svg" width="200" height="48" fill="none"><path fill="#EB6D20" d="M4.18 19.3v3.5h4.7v2.22h-4.7v3.7h5.3V31h-8.1V17.02h8.1v2.28h-5.3ZM20.544 22.68v2.36h-8.48v-2.36h8.48ZM22.965 25.46c0-1.147.233-2.147.7-3a4.92 4.92 0 0 1 1.94-2c.826-.48 1.773-.72 2.84-.72 1.373 0 2.506.347 3.4 1.04.906.68 1.513 1.64 1.82 2.88h-3.02a2.136 2.136 0 0 0-.82-1.12c-.374-.28-.84-.42-1.4-.42-.8 0-1.434.293-1.9.88-.467.573-.7 1.393-.7 2.46 0 1.053.233 1.873.7 2.46.466.573 1.1.86 1.9.86 1.133 0 1.873-.507 2.22-1.52h3.02c-.307 1.2-.914 2.153-1.82 2.86-.907.707-2.04 1.06-3.4 1.06-1.067 0-2.014-.233-2.84-.7a5.09 5.09 0 0 1-1.94-2c-.467-.867-.7-1.873-.7-3.02ZM40.636 31.18c-1.067 0-2.027-.233-2.88-.7a5.252 5.252 0 0 1-2.02-2.02c-.48-.867-.72-1.867-.72-3s.247-2.133.74-3a5.211 5.211 0 0 1 2.06-2c.867-.48 1.833-.72 2.9-.72s2.033.24 2.9.72a5.076 5.076 0 0 1 2.04 2c.507.867.76 1.867.76 3s-.26 2.133-.78 3a5.314 5.314 0 0 1-2.08 2.02c-.867.467-1.84.7-2.92.7Zm0-2.44c.507 0 .98-.12 1.42-.36a2.736 2.736 0 0 0 1.08-1.12c.267-.493.4-1.093.4-1.8 0-1.053-.28-1.86-.84-2.42a2.681 2.681 0 0 0-2.02-.86c-.8 0-1.473.287-2.02.86-.533.56-.8 1.367-.8 2.42s.26 1.867.78 2.44c.533.56 1.2.84 2 .84ZM62.23 19.76c1.36 0 2.453.42 3.28 1.26.84.827 1.26 1.987 1.26 3.48V31h-2.8v-6.12c0-.867-.22-1.527-.66-1.98-.44-.467-1.04-.7-1.8-.7s-1.367.233-1.82.7c-.44.453-.66 1.113-.66 1.98V31h-2.8v-6.12c0-.867-.22-1.527-.66-1.98-.44-.467-1.04-.7-1.8-.7-.774 0-1.387.233-1.84.7-.44.453-.66 1.113-.66 1.98V31h-2.8V19.92h2.8v1.34c.36-.467.82-.833 1.38-1.1.573-.267 1.2-.4 1.88-.4.867 0 1.64.187 2.32.56.68.36 1.206.88 1.58 1.56.36-.64.88-1.153 1.56-1.54a4.525 4.525 0 0 1 2.24-.58ZM83.187 19.76c1.36 0 2.453.42 3.28 1.26.84.827 1.26 1.987 1.26 3.48V31h-2.8v-6.12c0-.867-.22-1.527-.66-1.98-.44-.467-1.04-.7-1.8-.7s-1.367.233-1.82.7c-.44.453-.66 1.113-.66 1.98V31h-2.8v-6.12c0-.867-.22-1.527-.66-1.98-.44-.467-1.04-.7-1.8-.7-.773 0-1.387.233-1.84.7-.44.453-.66 1.113-.66 1.98V31h-2.8V19.92h2.8v1.34c.36-.467.82-.833 1.38-1.1.573-.267 1.2-.4 1.88-.4.867 0 1.64.187 2.32.56.68.36 1.206.88 1.58 1.56.36-.64.88-1.153 1.56-1.54a4.525 4.525 0 0 1 2.24-.58ZM100.684 25.22c0 .4-.027.76-.08 1.08h-8.1c.067.8.347 1.427.84 1.88.493.453 1.1.68 1.82.68 1.04 0 1.78-.447 2.22-1.34h3.02c-.32 1.067-.933 1.947-1.84 2.64-.907.68-2.02 1.02-3.34 1.02-1.067 0-2.027-.233-2.88-.7a5.152 5.152 0 0 1-1.98-2.02c-.467-.867-.7-1.867-.7-3 0-1.147.233-2.153.7-3.02a4.884 4.884 0 0 1 1.96-2c.84-.467 1.807-.7 2.9-.7 1.053 0 1.993.227 2.82.68a4.69 4.69 0 0 1 1.94 1.94c.467.827.7 1.78.7 2.86Zm-2.9-.8c-.013-.72-.273-1.293-.78-1.72-.507-.44-1.127-.66-1.86-.66-.693 0-1.28.213-1.76.64-.467.413-.753.993-.86 1.74h5.26ZM105.528 21.64a3.957 3.957 0 0 1 1.4-1.38c.586-.333 1.253-.5 2-.5v2.94h-.74c-.88 0-1.547.207-2 .62-.44.413-.66 1.133-.66 2.16V31h-2.8V19.92h2.8v1.72ZM110.094 25.46c0-1.147.233-2.147.7-3a4.914 4.914 0 0 1 1.94-2c.826-.48 1.773-.72 2.84-.72 1.373 0 2.506.347 3.4 1.04.906.68 1.513 1.64 1.82 2.88h-3.02a2.14 2.14 0 0 0-.82-1.12c-.374-.28-.84-.42-1.4-.42-.8 0-1.434.293-1.9.88-.467.573-.7 1.393-.7 2.46 0 1.053.233 1.873.7 2.46.466.573 1.1.86 1.9.86 1.133 0 1.873-.507 2.22-1.52h3.02c-.307 1.2-.914 2.153-1.82 2.86-.907.707-2.04 1.06-3.4 1.06-1.067 0-2.014-.233-2.84-.7a5.083 5.083 0 0 1-1.94-2c-.467-.867-.7-1.873-.7-3.02ZM133.145 25.22c0 .4-.027.76-.08 1.08h-8.1c.067.8.347 1.427.84 1.88.493.453 1.1.68 1.82.68 1.04 0 1.78-.447 2.22-1.34h3.02c-.32 1.067-.933 1.947-1.84 2.64-.907.68-2.02 1.02-3.34 1.02-1.067 0-2.027-.233-2.88-.7a5.152 5.152 0 0 1-1.98-2.02c-.467-.867-.7-1.867-.7-3 0-1.147.233-2.153.7-3.02a4.886 4.886 0 0 1 1.96-2c.84-.467 1.807-.7 2.9-.7 1.053 0 1.993.227 2.82.68.84.453 1.487 1.1 1.94 1.94.467.827.7 1.78.7 2.86Zm-2.9-.8c-.013-.72-.273-1.293-.78-1.72-.507-.44-1.127-.66-1.86-.66-.693 0-1.28.213-1.76.64-.467.413-.753.993-.86 1.74h5.26Z"/></svg>